# xmcd
#
# Track frame offsets: 
#        150
#        14625
#        27450
#        37800
#        51150
#        61950
#        79950
#        99900
#        117150
#        128175
#
# Disc length: 1863 seconds
#
# Revision: 0
# Processed by: cddbd v1.5.2PL0 Copyright (c) Steve Scherf et al.
# Submitted via: ExactAudioCopyFreeDBPlugin 1.0
#
DISCID=7e07450a
DTITLE=Paul Pigat - The Game
DYEAR=2019
DGENRE=Blues
TTITLE0=Roll All Night
TTITLE1=The Game
TTITLE2=Some People's Children
TTITLE3=Piece of Work
TTITLE4=4JT
TTITLE5=Hartland
TTITLE6=Ring of Fire
TTITLE7=Treat Your Papa Right
TTITLE8=You Gotta Use
TTITLE9=Brody
EXTD=
EXTT0=
EXTT1=
EXTT2=
EXTT3=
EXTT4=
EXTT5=
EXTT6=
EXTT7=
EXTT8=
EXTT9=
PLAYORDER=
